<svg width="33" height="32" viewBox="0 0 33 32" fill="none" xmlns="http://www.w3.org/2000/svg">
<path fill-rule="evenodd" clip-rule="evenodd" d="M22.1657 12.3561C23.2407 13.9447 23.5853 15.0035 23.5923 15.7164C23.5987 16.3606 23.3294 16.8329 22.7963 17.2902C22.2372 17.7698 21.4688 18.1642 20.5463 18.6377L20.4687 18.6775C20.2159 18.8073 19.9532 18.9428 19.6874 19.0867C19.8437 17.6191 19.6023 16.0527 19.1687 14.6122C18.4798 12.3232 17.244 10.1396 15.9759 8.80655C15.4909 8.29674 14.8741 8.10448 14.2382 8.17902C13.6536 8.24754 13.0957 8.5338 12.6031 8.87819C11.6128 9.57052 10.5921 10.7096 9.69514 11.871C8.78645 13.0476 7.95662 14.3113 7.35366 15.3095C7.05205 15.8089 6.80311 16.2486 6.62701 16.584C6.53964 16.7504 6.46546 16.9001 6.4109 17.023C6.38407 17.0835 6.35676 17.1491 6.33451 17.2135L6.3331 17.2175C6.32022 17.2543 6.27058 17.3964 6.27058 17.563C6.27059 18.432 6.74534 19.1185 7.36101 19.6294C7.96981 20.1346 8.79273 20.5375 9.70763 20.8687C11.5447 21.5339 13.9862 21.9914 16.483 22.3101L16.4993 22.3122C15.2837 24.103 14.1036 24.9693 12.9985 25.3602C11.5778 25.8626 10.1013 25.6492 8.44369 25.2307C6.75384 24.8041 5.17809 23.0481 4.29124 20.5894C3.41596 18.1627 3.30796 15.2885 4.31459 12.9319C6.3935 8.06505 10.2012 6.19656 13.7239 6.19655C14.966 6.19655 15.9385 6.19956 17.1455 6.89115C18.3964 7.60779 19.9709 9.11266 22.1657 12.3561ZM17.4794 20.6721L17.4593 20.7098C17.2051 20.6803 16.9515 20.6494 16.6991 20.6172C14.2376 20.303 11.9457 19.864 10.2887 19.264C9.45658 18.9627 8.84239 18.6409 8.45082 18.316C8.13984 18.058 8.02218 17.8459 7.9885 17.6764C8.02232 17.6034 8.07181 17.5035 8.13804 17.3774C8.29438 17.0796 8.52552 16.6704 8.81452 16.1919C9.39278 15.2345 10.1862 14.0273 11.0459 12.9141C11.9173 11.7857 12.8099 10.816 13.581 10.2769C13.9691 10.0056 14.2539 9.89553 14.4369 9.87408C14.5685 9.85866 14.6442 9.88283 14.7393 9.98286C15.7918 11.0893 16.9085 13.0241 17.5345 15.104C18.167 17.2056 18.2377 19.246 17.4794 20.6721ZM13.5675 26.9692C15.2866 26.3612 16.8864 24.9991 18.3881 22.5272C22.3525 22.9287 26.2713 23.0354 28.1798 23.0531L24.8532 26.3797L25.9836 27.5101L30.9898 22.5039L29.8594 21.3735L25.9836 17.4977L24.8532 18.6281L27.5633 21.3382C25.786 21.3089 22.9009 21.2124 19.8621 20.951C20.2912 20.6916 20.7581 20.4474 21.2483 20.1958L21.4057 20.1151L21.4057 20.115C22.2555 19.6797 23.1902 19.2008 23.9074 18.5857C24.7108 17.8966 25.3115 16.9788 25.2989 15.6995C25.2869 14.4889 24.7235 13.0908 23.5792 11.3996C21.3352 8.08358 19.5837 6.32111 17.994 5.41031C16.3866 4.48937 15.0222 4.48963 13.784 4.48988L13.7239 4.48989C9.53574 4.48989 5.09951 6.74971 2.74512 12.2615C1.5351 15.0942 1.69617 18.4247 2.68582 21.1684C3.66391 23.8801 5.54896 26.2601 8.02592 26.8855C9.73318 27.3165 11.6388 27.6513 13.5675 26.9692Z" fill="#F2F2F2"/>
</svg>
