<svg width="16" height="16" viewBox="0 0 16 16" fill="none" xmlns="http://www.w3.org/2000/svg">
<path d="M15.6061 15.6062C16.1312 15.0811 16.1312 14.2297 15.6061 13.7046L9.90151 8.00003L15.6062 2.29536C16.1313 1.77026 16.1313 0.918916 15.6062 0.393821C15.0811 -0.131274 14.2297 -0.131274 13.7046 0.393821L7.99997 6.09849L2.29536 0.393879C1.77026 -0.131216 0.918916 -0.131217 0.393821 0.393878C-0.131274 0.918973 -0.131273 1.77032 0.393822 2.29542L6.09843 8.00003L0.39388 13.7046C-0.131215 14.2297 -0.131216 15.081 0.393879 15.6061C0.918974 16.1312 1.77032 16.1312 2.29542 15.6061L7.99997 9.90157L13.7046 15.6062C14.2297 16.1313 15.081 16.1313 15.6061 15.6062Z" fill="white"/>
</svg>
