<svg width="32" height="32" viewBox="0 0 32 32" fill="none" xmlns="http://www.w3.org/2000/svg">
<circle cx="16" cy="16" r="15.5" stroke="white"/>
<path fill-rule="evenodd" clip-rule="evenodd" d="M18.3536 9.35356C18.1583 9.15829 17.8417 9.15829 17.6465 9.35356L11.3906 15.6095C11.39 15.61 11.3895 15.6105 11.3889 15.6111C11.3884 15.6116 11.3878 15.6122 11.3873 15.6127L11.3536 15.6464C11.1583 15.8417 11.1583 16.1583 11.3536 16.3535C11.3594 16.3593 11.3653 16.365 11.3713 16.3704C11.377 16.3767 11.3829 16.3828 11.3889 16.3889L17.6111 22.6111C17.8259 22.8259 18.1741 22.8259 18.3889 22.6111C18.6037 22.3963 18.6037 22.0481 18.3889 21.8333L12.4849 15.9293L18.3536 10.0607C18.5488 9.8654 18.5488 9.54882 18.3536 9.35356Z" fill="white"/>
</svg>
