<svg width="32" height="32" viewBox="0 0 32 32" fill="none" xmlns="http://www.w3.org/2000/svg">
<rect width="32" height="32" rx="2" fill="#E37A58"/>
<path fill-rule="evenodd" clip-rule="evenodd" d="M24 16C24 20.4183 20.4183 24 16 24C11.5817 24 8 20.4183 8 16C8 11.5817 11.5817 8 16 8C20.4183 8 24 11.5817 24 16ZM25 16C25 20.9706 20.9706 25 16 25C11.0294 25 7 20.9706 7 16C7 11.0294 11.0294 7 16 7C20.9706 7 25 11.0294 25 16ZM16 21.625C19.1066 21.625 21.625 19.1066 21.625 16C21.625 12.8934 19.1066 10.375 16 10.375C12.8934 10.375 10.375 12.8934 10.375 16C10.375 19.1066 12.8934 21.625 16 21.625Z" fill="white"/>
</svg>
