<svg width="130" height="32" viewBox="0 0 130 32" fill="none" xmlns="http://www.w3.org/2000/svg">
<path fill-rule="evenodd" clip-rule="evenodd" d="M22.1657 12.3561C23.2407 13.9447 23.5853 15.0035 23.5923 15.7164C23.5987 16.3606 23.3294 16.8329 22.7963 17.2902C22.2372 17.7698 21.4688 18.1642 20.5463 18.6377L20.4687 18.6775C20.2159 18.8073 19.9532 18.9428 19.6874 19.0867C19.8437 17.6191 19.6023 16.0527 19.1687 14.6122C18.4798 12.3232 17.244 10.1396 15.9759 8.80655C15.4909 8.29674 14.8741 8.10448 14.2382 8.17902C13.6536 8.24754 13.0957 8.5338 12.6031 8.87819C11.6128 9.57052 10.5921 10.7096 9.69514 11.871C8.78645 13.0476 7.95662 14.3113 7.35366 15.3095C7.05205 15.8089 6.80311 16.2486 6.62701 16.584C6.53964 16.7504 6.46546 16.9001 6.4109 17.023C6.38407 17.0835 6.35676 17.1491 6.33451 17.2135L6.3331 17.2175C6.32022 17.2543 6.27058 17.3964 6.27058 17.563C6.27059 18.432 6.74534 19.1185 7.36101 19.6294C7.96981 20.1346 8.79273 20.5375 9.70763 20.8687C11.5447 21.5339 13.9862 21.9914 16.483 22.3101L16.4993 22.3122C15.2837 24.103 14.1036 24.9693 12.9985 25.3602C11.5778 25.8626 10.1013 25.6492 8.44369 25.2307C6.75384 24.8041 5.17809 23.0481 4.29124 20.5894C3.41596 18.1627 3.30796 15.2885 4.31459 12.9319C6.3935 8.06505 10.2012 6.19656 13.7239 6.19655C14.966 6.19655 15.9385 6.19956 17.1455 6.89115C18.3964 7.60779 19.9709 9.11266 22.1657 12.3561ZM17.4794 20.6721L17.4593 20.7098C17.2051 20.6803 16.9515 20.6494 16.6991 20.6172C14.2376 20.303 11.9457 19.864 10.2887 19.264C9.45658 18.9627 8.84239 18.6409 8.45082 18.316C8.13984 18.058 8.02218 17.8459 7.9885 17.6764C8.02232 17.6034 8.07181 17.5035 8.13804 17.3774C8.29438 17.0796 8.52552 16.6704 8.81452 16.1919C9.39278 15.2345 10.1862 14.0273 11.0459 12.9141C11.9173 11.7857 12.8099 10.816 13.581 10.2769C13.9691 10.0056 14.2539 9.89553 14.4369 9.87408C14.5685 9.85866 14.6442 9.88283 14.7393 9.98286C15.7918 11.0893 16.9085 13.0241 17.5345 15.104C18.167 17.2056 18.2377 19.246 17.4794 20.6721ZM13.5675 26.9692C15.2866 26.3612 16.8864 24.9991 18.3881 22.5272C22.3525 22.9287 26.2713 23.0354 28.1798 23.0531L24.8532 26.3797L25.9836 27.5101L30.9898 22.5039L29.8594 21.3735L25.9836 17.4977L24.8532 18.6281L27.5633 21.3382C25.786 21.3089 22.9009 21.2124 19.8621 20.951C20.2912 20.6916 20.7581 20.4474 21.2483 20.1958L21.4057 20.1151L21.4057 20.115C22.2555 19.6797 23.1902 19.2008 23.9074 18.5857C24.7108 17.8966 25.3115 16.9788 25.2989 15.6995C25.2869 14.4889 24.7235 13.0908 23.5792 11.3996C21.3352 8.08358 19.5837 6.32111 17.994 5.41031C16.3866 4.48937 15.0222 4.48963 13.784 4.48988L13.7239 4.48989C9.53574 4.48989 5.09951 6.74971 2.74512 12.2615C1.5351 15.0942 1.69617 18.4247 2.68582 21.1684C3.66391 23.8801 5.54896 26.2601 8.02592 26.8855C9.73318 27.3165 11.6388 27.6513 13.5675 26.9692Z" fill="#F2F2F2"/>
<path d="M44.0164 17.3614L42.4775 13.3741C42.4319 13.2555 42.3841 13.1187 42.3339 12.9637C42.2837 12.8041 42.2359 12.6354 42.1903 12.4576C42.0945 12.8269 41.9965 13.1347 41.8962 13.3809L40.3573 17.3614H44.0164ZM46.7795 21H45.7536C45.6351 21 45.5393 20.9704 45.4663 20.9111C45.3934 20.8518 45.3387 20.7766 45.3022 20.6854L44.3857 18.319H39.988L39.0715 20.6854C39.0441 20.7675 38.9917 20.8404 38.9142 20.9042C38.8367 20.9681 38.7409 21 38.6269 21H37.601L41.52 11.1991H42.8605L46.7795 21ZM56.9355 14.0717L54.6922 21H53.7278C53.6093 21 53.5272 20.9225 53.4816 20.7675L51.9496 16.0688C51.9131 15.9639 51.8835 15.859 51.8607 15.7542C51.8379 15.6447 51.8151 15.5376 51.7923 15.4327C51.7695 15.5376 51.7467 15.6447 51.7239 15.7542C51.7011 15.859 51.6714 15.9662 51.635 16.0756L50.0756 20.7675C50.0345 20.9225 49.9433 21 49.802 21H48.8855L46.6422 14.0717H47.5997C47.6955 14.0717 47.7752 14.0968 47.8391 14.1469C47.9075 14.1971 47.9531 14.2563 47.9759 14.3247L49.3027 18.784C49.3802 19.1123 49.4418 19.4224 49.4874 19.7142C49.5284 19.5637 49.5695 19.411 49.6105 19.256C49.6561 19.1009 49.704 18.9436 49.7541 18.784L51.2177 14.2974C51.2405 14.229 51.2793 14.172 51.334 14.1264C51.3933 14.0808 51.464 14.058 51.546 14.058H52.0795C52.1707 14.058 52.2459 14.0808 52.3052 14.1264C52.3645 14.172 52.4055 14.229 52.4283 14.2974L53.8578 18.784C53.9079 18.9436 53.9535 19.1009 53.9945 19.256C54.0356 19.411 54.0743 19.5637 54.1108 19.7142C54.1336 19.5637 54.161 19.4133 54.1929 19.2628C54.2294 19.1078 54.2681 18.9482 54.3092 18.784L55.6634 14.3247C55.6862 14.2518 55.7295 14.1925 55.7933 14.1469C55.8571 14.0968 55.9324 14.0717 56.019 14.0717H56.9355ZM61.7955 17.8812C61.2347 17.8995 60.7559 17.9451 60.3593 18.018C59.9671 18.0864 59.6457 18.1776 59.3949 18.2916C59.1487 18.4056 58.9686 18.5401 58.8546 18.6951C58.7452 18.8501 58.6904 19.0234 58.6904 19.2149C58.6904 19.3973 58.7201 19.5546 58.7793 19.6868C58.8386 19.8191 58.9184 19.9285 59.0187 20.0151C59.1236 20.0972 59.2444 20.1588 59.3812 20.1998C59.5226 20.2363 59.673 20.2545 59.8326 20.2545C60.0469 20.2545 60.243 20.234 60.4208 20.193C60.5986 20.1474 60.7651 20.0835 60.9201 20.0014C61.0797 19.9194 61.2301 19.8213 61.3715 19.7074C61.5174 19.5934 61.6587 19.4634 61.7955 19.3175V17.8812ZM57.8629 15.0497C58.2459 14.6804 58.6585 14.4045 59.1008 14.2222C59.5431 14.0398 60.0332 13.9486 60.5713 13.9486C60.9588 13.9486 61.3031 14.0124 61.604 14.1401C61.905 14.2677 62.158 14.4456 62.3632 14.6736C62.5684 14.9015 62.7234 15.1774 62.8283 15.5011C62.9331 15.8249 62.9856 16.1805 62.9856 16.5681V21H62.4453C62.3267 21 62.2355 20.9818 62.1717 20.9453C62.1079 20.9042 62.0577 20.8267 62.0212 20.7127L61.8844 20.0562C61.7021 20.2249 61.5242 20.3753 61.351 20.5076C61.1777 20.6352 60.9953 20.7447 60.8038 20.8359C60.6123 20.9225 60.4071 20.9886 60.1883 21.0342C59.974 21.0844 59.7346 21.1094 59.4701 21.1094C59.2011 21.1094 58.9481 21.073 58.711 21C58.4739 20.9225 58.2664 20.8085 58.0886 20.658C57.9153 20.5076 57.7762 20.3183 57.6714 20.0904C57.5711 19.8578 57.5209 19.5842 57.5209 19.2696C57.5209 18.9961 57.5961 18.7339 57.7466 18.4831C57.8971 18.2278 58.141 18.0021 58.4784 17.806C58.8158 17.6099 59.2558 17.4504 59.7984 17.3272C60.341 17.1996 61.0067 17.1266 61.7955 17.1084V16.5681C61.7955 16.03 61.6793 15.6242 61.4467 15.3507C61.2142 15.0725 60.8745 14.9335 60.4276 14.9335C60.1267 14.9335 59.8737 14.9722 59.6685 15.0497C59.4678 15.1227 59.2923 15.207 59.1418 15.3028C58.9959 15.394 58.8683 15.4783 58.7588 15.5558C58.654 15.6288 58.5491 15.6653 58.4442 15.6653C58.3621 15.6653 58.2915 15.6447 58.2322 15.6037C58.1729 15.5581 58.1228 15.5034 58.0817 15.4396L57.8629 15.0497ZM65.9959 15.4601C66.2147 14.9859 66.4838 14.6166 66.8029 14.3521C67.1221 14.0831 67.5119 13.9486 67.9725 13.9486C68.1184 13.9486 68.2574 13.9645 68.3897 13.9965C68.5265 14.0284 68.6473 14.0785 68.7522 14.1469L68.6632 15.0566C68.6359 15.1705 68.5675 15.2275 68.4581 15.2275C68.3942 15.2275 68.3008 15.2139 68.1776 15.1865C68.0545 15.1592 67.9155 15.1455 67.7604 15.1455C67.5416 15.1455 67.3455 15.1774 67.1723 15.2412C67.0036 15.3051 66.8508 15.4008 66.714 15.5285C66.5818 15.6516 66.461 15.8066 66.3515 15.9936C66.2467 16.1759 66.1509 16.3857 66.0643 16.6228V21H64.84V14.0717H65.5376C65.6699 14.0717 65.7611 14.0968 65.8112 14.1469C65.8614 14.1971 65.8956 14.2837 65.9138 14.4068L65.9959 15.4601ZM74.1792 16.7801C74.1792 16.4974 74.1382 16.2398 74.0561 16.0072C73.9786 15.7701 73.8623 15.5672 73.7073 15.3985C73.5568 15.2253 73.3722 15.093 73.1533 15.0018C72.9345 14.9061 72.686 14.8582 72.4078 14.8582C71.8242 14.8582 71.3614 15.0292 71.0194 15.3712C70.682 15.7086 70.4723 16.1782 70.3902 16.7801H74.1792ZM75.1641 20.0288C75.0136 20.2112 74.8335 20.3708 74.6238 20.5076C74.414 20.6398 74.1883 20.7492 73.9467 20.8359C73.7096 20.9225 73.4634 20.9863 73.208 21.0274C72.9527 21.073 72.6996 21.0958 72.4489 21.0958C71.9701 21.0958 71.5278 21.016 71.122 20.8564C70.7208 20.6922 70.372 20.4551 70.0756 20.1451C69.7838 19.8305 69.5558 19.4429 69.3916 18.9824C69.2275 18.5219 69.1454 17.9929 69.1454 17.3956C69.1454 16.9123 69.2184 16.4609 69.3643 16.0414C69.5148 15.6219 69.7291 15.2595 70.0072 14.954C70.2853 14.6439 70.625 14.4023 71.0263 14.229C71.4275 14.0512 71.8789 13.9623 72.3805 13.9623C72.7954 13.9623 73.1784 14.0329 73.5295 14.1743C73.8851 14.3111 74.1906 14.5117 74.446 14.7761C74.7059 15.036 74.9088 15.3598 75.0547 15.7473C75.2006 16.1303 75.2735 16.5681 75.2735 17.0605C75.2735 17.252 75.253 17.3797 75.212 17.4435C75.1709 17.5073 75.0934 17.5393 74.9794 17.5393H70.3492C70.3628 17.977 70.4221 18.3577 70.527 18.6814C70.6364 19.0052 70.7869 19.2765 70.9784 19.4953C71.1699 19.7096 71.3979 19.8715 71.6623 19.9809C71.9268 20.0858 72.2232 20.1382 72.5514 20.1382C72.8569 20.1382 73.1191 20.104 73.338 20.0356C73.5614 19.9627 73.7529 19.8852 73.9125 19.8031C74.0721 19.721 74.2043 19.6458 74.3092 19.5774C74.4186 19.5045 74.5121 19.468 74.5896 19.468C74.6899 19.468 74.7674 19.5067 74.8221 19.5842L75.1641 20.0288ZM77.9179 15.0771C78.0684 14.9084 78.228 14.7556 78.3967 14.6188C78.5654 14.482 78.7432 14.3658 78.9301 14.27C79.1217 14.1697 79.3223 14.0945 79.532 14.0443C79.7463 13.9896 79.9766 13.9623 80.2228 13.9623C80.6012 13.9623 80.9341 14.0261 81.2213 14.1538C81.5132 14.2769 81.7548 14.4547 81.9463 14.6872C82.1424 14.9152 82.2906 15.1911 82.3909 15.5148C82.4912 15.8385 82.5414 16.1965 82.5414 16.5886V21H81.3171V16.5886C81.3171 16.0642 81.1963 15.6584 80.9546 15.3712C80.7175 15.0794 80.355 14.9335 79.8671 14.9335C79.5069 14.9335 79.1695 15.0201 78.8549 15.1933C78.5449 15.3666 78.2576 15.6014 77.9932 15.8978V21H76.7689V14.0717H77.5007C77.674 14.0717 77.7811 14.156 77.8222 14.3247L77.9179 15.0771ZM89.0336 16.7801C89.0336 16.4974 88.9925 16.2398 88.9104 16.0072C88.8329 15.7701 88.7167 15.5672 88.5616 15.3985C88.4112 15.2253 88.2265 15.093 88.0076 15.0018C87.7888 14.9061 87.5403 14.8582 87.2621 14.8582C86.6785 14.8582 86.2157 15.0292 85.8737 15.3712C85.5363 15.7086 85.3266 16.1782 85.2445 16.7801H89.0336ZM90.0184 20.0288C89.868 20.2112 89.6879 20.3708 89.4781 20.5076C89.2684 20.6398 89.0427 20.7492 88.801 20.8359C88.5639 20.9225 88.3177 20.9863 88.0624 21.0274C87.807 21.073 87.554 21.0958 87.3032 21.0958C86.8244 21.0958 86.3821 21.016 85.9763 20.8564C85.5751 20.6922 85.2263 20.4551 84.9299 20.1451C84.6381 19.8305 84.4101 19.4429 84.246 18.9824C84.0818 18.5219 83.9997 17.9929 83.9997 17.3956C83.9997 16.9123 84.0727 16.4609 84.2186 16.0414C84.3691 15.6219 84.5834 15.2595 84.8615 14.954C85.1397 14.6439 85.4793 14.4023 85.8806 14.229C86.2818 14.0512 86.7332 13.9623 87.2348 13.9623C87.6497 13.9623 88.0327 14.0329 88.3838 14.1743C88.7395 14.3111 89.0449 14.5117 89.3003 14.7761C89.5602 15.036 89.7631 15.3598 89.909 15.7473C90.0549 16.1303 90.1279 16.5681 90.1279 17.0605C90.1279 17.252 90.1073 17.3797 90.0663 17.4435C90.0253 17.5073 89.9478 17.5393 89.8338 17.5393H85.2035C85.2172 17.977 85.2764 18.3577 85.3813 18.6814C85.4907 19.0052 85.6412 19.2765 85.8327 19.4953C86.0242 19.7096 86.2522 19.8715 86.5166 19.9809C86.7811 20.0858 87.0775 20.1382 87.4058 20.1382C87.7113 20.1382 87.9734 20.104 88.1923 20.0356C88.4157 19.9627 88.6072 19.8852 88.7668 19.8031C88.9264 19.721 89.0586 19.6458 89.1635 19.5774C89.2729 19.5045 89.3664 19.468 89.4439 19.468C89.5442 19.468 89.6217 19.5067 89.6765 19.5842L90.0184 20.0288ZM95.6585 15.2139C95.6038 15.3142 95.5194 15.3643 95.4054 15.3643C95.337 15.3643 95.2595 15.3393 95.1729 15.2891C95.0862 15.2389 94.9791 15.1842 94.8514 15.125C94.7283 15.0611 94.5801 15.0041 94.4069 14.954C94.2336 14.8993 94.0284 14.8719 93.7913 14.8719C93.5861 14.8719 93.4015 14.8993 93.2373 14.954C93.0732 15.0041 92.9318 15.0748 92.8133 15.166C92.6993 15.2572 92.6104 15.3643 92.5465 15.4874C92.4873 15.606 92.4576 15.7359 92.4576 15.8773C92.4576 16.0551 92.5078 16.2033 92.6081 16.3218C92.713 16.4404 92.8498 16.543 93.0185 16.6296C93.1872 16.7163 93.3787 16.7938 93.593 16.8622C93.8073 16.926 94.0261 16.9967 94.2496 17.0742C94.4775 17.1471 94.6987 17.2292 94.913 17.3204C95.1273 17.4116 95.3188 17.5256 95.4875 17.6624C95.6562 17.7992 95.7907 17.9679 95.891 18.1685C95.9959 18.3646 96.0483 18.6016 96.0483 18.8798C96.0483 19.199 95.9913 19.4953 95.8773 19.7689C95.7633 20.0379 95.5946 20.2727 95.3712 20.4734C95.1478 20.6694 94.8742 20.8245 94.5505 20.9384C94.2268 21.0524 93.8529 21.1094 93.4288 21.1094C92.9455 21.1094 92.5078 21.0319 92.1157 20.8769C91.7235 20.7173 91.3907 20.5144 91.1171 20.2682L91.4044 19.8031C91.4408 19.7438 91.4842 19.6982 91.5343 19.6663C91.5845 19.6344 91.6483 19.6184 91.7258 19.6184C91.8079 19.6184 91.8945 19.6504 91.9857 19.7142C92.0769 19.778 92.1863 19.8487 92.314 19.9262C92.4462 20.0037 92.6058 20.0744 92.7928 20.1382C92.9797 20.2021 93.2122 20.234 93.4904 20.234C93.7275 20.234 93.9349 20.2043 94.1128 20.1451C94.2906 20.0812 94.4388 19.9969 94.5573 19.892C94.6759 19.7871 94.7625 19.6663 94.8172 19.5295C94.8765 19.3927 94.9061 19.2468 94.9061 19.0918C94.9061 18.9003 94.8537 18.743 94.7488 18.6199C94.6485 18.4922 94.514 18.3851 94.3453 18.2984C94.1766 18.2072 93.9828 18.1297 93.764 18.0659C93.5497 17.9975 93.3285 17.9268 93.1005 17.8539C92.8771 17.7809 92.656 17.6988 92.4371 17.6077C92.2228 17.5119 92.0313 17.3934 91.8626 17.252C91.6939 17.1107 91.5571 16.9374 91.4522 16.7322C91.3519 16.5225 91.3018 16.2694 91.3018 15.973C91.3018 15.7086 91.3565 15.4555 91.4659 15.2139C91.5754 14.9676 91.7349 14.7533 91.9447 14.571C92.1544 14.384 92.412 14.2358 92.7175 14.1264C93.023 14.017 93.3718 13.9623 93.764 13.9623C94.2199 13.9623 94.628 14.0352 94.9882 14.1811C95.353 14.3225 95.6676 14.5185 95.932 14.7693L95.6585 15.2139ZM101.576 15.2139C101.521 15.3142 101.437 15.3643 101.323 15.3643C101.255 15.3643 101.177 15.3393 101.091 15.2891C101.004 15.2389 100.897 15.1842 100.769 15.125C100.646 15.0611 100.498 15.0041 100.325 14.954C100.151 14.8993 99.9461 14.8719 99.709 14.8719C99.5038 14.8719 99.3192 14.8993 99.155 14.954C98.9909 15.0041 98.8495 15.0748 98.731 15.166C98.617 15.2572 98.5281 15.3643 98.4642 15.4874C98.405 15.606 98.3753 15.7359 98.3753 15.8773C98.3753 16.0551 98.4255 16.2033 98.5258 16.3218C98.6307 16.4404 98.7674 16.543 98.9362 16.6296C99.1049 16.7163 99.2964 16.7938 99.5107 16.8622C99.725 16.926 99.9438 16.9967 100.167 17.0742C100.395 17.1471 100.616 17.2292 100.831 17.3204C101.045 17.4116 101.236 17.5256 101.405 17.6624C101.574 17.7992 101.708 17.9679 101.809 18.1685C101.914 18.3646 101.966 18.6016 101.966 18.8798C101.966 19.199 101.909 19.4953 101.795 19.7689C101.681 20.0379 101.512 20.2727 101.289 20.4734C101.065 20.6694 100.792 20.8245 100.468 20.9384C100.144 21.0524 99.7706 21.1094 99.3465 21.1094C98.8632 21.1094 98.4255 21.0319 98.0333 20.8769C97.6412 20.7173 97.3084 20.5144 97.0348 20.2682L97.3221 19.8031C97.3585 19.7438 97.4018 19.6982 97.452 19.6663C97.5022 19.6344 97.566 19.6184 97.6435 19.6184C97.7256 19.6184 97.8122 19.6504 97.9034 19.7142C97.9946 19.778 98.104 19.8487 98.2317 19.9262C98.3639 20.0037 98.5235 20.0744 98.7105 20.1382C98.8974 20.2021 99.1299 20.234 99.4081 20.234C99.6452 20.234 99.8526 20.2043 100.03 20.1451C100.208 20.0812 100.356 19.9969 100.475 19.892C100.594 19.7871 100.68 19.6663 100.735 19.5295C100.794 19.3927 100.824 19.2468 100.824 19.0918C100.824 18.9003 100.771 18.743 100.667 18.6199C100.566 18.4922 100.432 18.3851 100.263 18.2984C100.094 18.2072 99.9005 18.1297 99.6816 18.0659C99.4673 17.9975 99.2462 17.9268 99.0182 17.8539C98.7948 17.7809 98.5737 17.6988 98.3548 17.6077C98.1405 17.5119 97.949 17.3934 97.7803 17.252C97.6116 17.1107 97.4748 16.9374 97.3699 16.7322C97.2696 16.5225 97.2195 16.2694 97.2195 15.973C97.2195 15.7086 97.2742 15.4555 97.3836 15.2139C97.493 14.9676 97.6526 14.7533 97.8624 14.571C98.0721 14.384 98.3297 14.2358 98.6352 14.1264C98.9407 14.017 99.2895 13.9623 99.6816 13.9623C100.138 13.9623 100.546 14.0352 100.906 14.1811C101.271 14.3225 101.585 14.5185 101.85 14.7693L101.576 15.2139ZM106.439 16.2808C106.817 16.2808 107.15 16.2307 107.437 16.1303C107.729 16.03 107.973 15.891 108.169 15.7131C108.37 15.5308 108.52 15.3142 108.62 15.0634C108.721 14.8126 108.771 14.5368 108.771 14.2358C108.771 13.6112 108.577 13.1233 108.189 12.7722C107.806 12.4211 107.223 12.2456 106.439 12.2456H104.865V16.2808H106.439ZM106.439 11.1991C107.059 11.1991 107.597 11.2721 108.053 11.418C108.513 11.5593 108.894 11.7622 109.195 12.0267C109.496 12.2912 109.719 12.6103 109.865 12.9842C110.016 13.3581 110.091 13.7753 110.091 14.2358C110.091 14.6918 110.011 15.109 109.851 15.4874C109.692 15.8659 109.457 16.1919 109.147 16.4655C108.841 16.7391 108.461 16.9534 108.005 17.1084C107.553 17.2588 107.031 17.3341 106.439 17.3341H104.865V21H103.545V11.1991H106.439ZM115.015 17.8812C114.454 17.8995 113.975 17.9451 113.578 18.018C113.186 18.0864 112.865 18.1776 112.614 18.2916C112.368 18.4056 112.188 18.5401 112.074 18.6951C111.964 18.8501 111.91 19.0234 111.91 19.2149C111.91 19.3973 111.939 19.5546 111.998 19.6868C112.058 19.8191 112.138 19.9285 112.238 20.0151C112.343 20.0972 112.464 20.1588 112.6 20.1998C112.742 20.2363 112.892 20.2545 113.052 20.2545C113.266 20.2545 113.462 20.234 113.64 20.193C113.818 20.1474 113.984 20.0835 114.139 20.0014C114.299 19.9194 114.449 19.8213 114.591 19.7074C114.736 19.5934 114.878 19.4634 115.015 19.3175V17.8812ZM111.082 15.0497C111.465 14.6804 111.878 14.4045 112.32 14.2222C112.762 14.0398 113.252 13.9486 113.79 13.9486C114.178 13.9486 114.522 14.0124 114.823 14.1401C115.124 14.2677 115.377 14.4456 115.582 14.6736C115.787 14.9015 115.942 15.1774 116.047 15.5011C116.152 15.8249 116.205 16.1805 116.205 16.5681V21H115.664C115.546 21 115.455 20.9818 115.391 20.9453C115.327 20.9042 115.277 20.8267 115.24 20.7127L115.104 20.0562C114.921 20.2249 114.743 20.3753 114.57 20.5076C114.397 20.6352 114.214 20.7447 114.023 20.8359C113.831 20.9225 113.626 20.9886 113.407 21.0342C113.193 21.0844 112.954 21.1094 112.689 21.1094C112.42 21.1094 112.167 21.073 111.93 21C111.693 20.9225 111.485 20.8085 111.308 20.658C111.134 20.5076 110.995 20.3183 110.89 20.0904C110.79 19.8578 110.74 19.5842 110.74 19.2696C110.74 18.9961 110.815 18.7339 110.966 18.4831C111.116 18.2278 111.36 18.0021 111.698 17.806C112.035 17.6099 112.475 17.4504 113.018 17.3272C113.56 17.1996 114.226 17.1266 115.015 17.1084V16.5681C115.015 16.03 114.898 15.6242 114.666 15.3507C114.433 15.0725 114.094 14.9335 113.647 14.9335C113.346 14.9335 113.093 14.9722 112.888 15.0497C112.687 15.1227 112.511 15.207 112.361 15.3028C112.215 15.394 112.087 15.4783 111.978 15.5558C111.873 15.6288 111.768 15.6653 111.663 15.6653C111.581 15.6653 111.511 15.6447 111.451 15.6037C111.392 15.5581 111.342 15.5034 111.301 15.4396L111.082 15.0497ZM122.094 15.2139C122.04 15.3142 121.955 15.3643 121.841 15.3643C121.773 15.3643 121.695 15.3393 121.609 15.2891C121.522 15.2389 121.415 15.1842 121.287 15.125C121.164 15.0611 121.016 15.0041 120.843 14.954C120.669 14.8993 120.464 14.8719 120.227 14.8719C120.022 14.8719 119.837 14.8993 119.673 14.954C119.509 15.0041 119.368 15.0748 119.249 15.166C119.135 15.2572 119.046 15.3643 118.982 15.4874C118.923 15.606 118.894 15.7359 118.894 15.8773C118.894 16.0551 118.944 16.2033 119.044 16.3218C119.149 16.4404 119.286 16.543 119.454 16.6296C119.623 16.7163 119.815 16.7938 120.029 16.8622C120.243 16.926 120.462 16.9967 120.685 17.0742C120.913 17.1471 121.135 17.2292 121.349 17.3204C121.563 17.4116 121.755 17.5256 121.923 17.6624C122.092 17.7992 122.227 17.9679 122.327 18.1685C122.432 18.3646 122.484 18.6016 122.484 18.8798C122.484 19.199 122.427 19.4953 122.313 19.7689C122.199 20.0379 122.031 20.2727 121.807 20.4734C121.584 20.6694 121.31 20.8245 120.986 20.9384C120.663 21.0524 120.289 21.1094 119.865 21.1094C119.381 21.1094 118.944 21.0319 118.552 20.8769C118.159 20.7173 117.827 20.5144 117.553 20.2682L117.84 19.8031C117.877 19.7438 117.92 19.6982 117.97 19.6663C118.02 19.6344 118.084 19.6184 118.162 19.6184C118.244 19.6184 118.33 19.6504 118.422 19.7142C118.513 19.778 118.622 19.8487 118.75 19.9262C118.882 20.0037 119.042 20.0744 119.229 20.1382C119.416 20.2021 119.648 20.234 119.926 20.234C120.163 20.234 120.371 20.2043 120.549 20.1451C120.726 20.0812 120.875 19.9969 120.993 19.892C121.112 19.7871 121.198 19.6663 121.253 19.5295C121.312 19.3927 121.342 19.2468 121.342 19.0918C121.342 18.9003 121.29 18.743 121.185 18.6199C121.084 18.4922 120.95 18.3851 120.781 18.2984C120.612 18.2072 120.419 18.1297 120.2 18.0659C119.986 17.9975 119.764 17.9268 119.536 17.8539C119.313 17.7809 119.092 17.6988 118.873 17.6077C118.659 17.5119 118.467 17.3934 118.298 17.252C118.13 17.1107 117.993 16.9374 117.888 16.7322C117.788 16.5225 117.738 16.2694 117.738 15.973C117.738 15.7086 117.792 15.4555 117.902 15.2139C118.011 14.9676 118.171 14.7533 118.381 14.571C118.59 14.384 118.848 14.2358 119.153 14.1264C119.459 14.017 119.808 13.9623 120.2 13.9623C120.656 13.9623 121.064 14.0352 121.424 14.1811C121.789 14.3225 122.103 14.5185 122.368 14.7693L122.094 15.2139ZM128.012 15.2139C127.957 15.3142 127.873 15.3643 127.759 15.3643C127.691 15.3643 127.613 15.3393 127.526 15.2891C127.44 15.2389 127.333 15.1842 127.205 15.125C127.082 15.0611 126.934 15.0041 126.76 14.954C126.587 14.8993 126.382 14.8719 126.145 14.8719C125.94 14.8719 125.755 14.8993 125.591 14.954C125.427 15.0041 125.285 15.0748 125.167 15.166C125.053 15.2572 124.964 15.3643 124.9 15.4874C124.841 15.606 124.811 15.7359 124.811 15.8773C124.811 16.0551 124.861 16.2033 124.962 16.3218C125.067 16.4404 125.203 16.543 125.372 16.6296C125.541 16.7163 125.732 16.7938 125.947 16.8622C126.161 16.926 126.38 16.9967 126.603 17.0742C126.831 17.1471 127.052 17.2292 127.267 17.3204C127.481 17.4116 127.672 17.5256 127.841 17.6624C128.01 17.7992 128.144 17.9679 128.245 18.1685C128.349 18.3646 128.402 18.6016 128.402 18.8798C128.402 19.199 128.345 19.4953 128.231 19.7689C128.117 20.0379 127.948 20.2727 127.725 20.4734C127.501 20.6694 127.228 20.8245 126.904 20.9384C126.58 21.0524 126.206 21.1094 125.782 21.1094C125.299 21.1094 124.861 21.0319 124.469 20.8769C124.077 20.7173 123.744 20.5144 123.471 20.2682L123.758 19.8031C123.794 19.7438 123.838 19.6982 123.888 19.6663C123.938 19.6344 124.002 19.6184 124.079 19.6184C124.161 19.6184 124.248 19.6504 124.339 19.7142C124.43 19.778 124.54 19.8487 124.668 19.9262C124.8 20.0037 124.959 20.0744 125.146 20.1382C125.333 20.2021 125.566 20.234 125.844 20.234C126.081 20.234 126.289 20.2043 126.466 20.1451C126.644 20.0812 126.792 19.9969 126.911 19.892C127.029 19.7871 127.116 19.6663 127.171 19.5295C127.23 19.3927 127.26 19.2468 127.26 19.0918C127.26 18.9003 127.207 18.743 127.102 18.6199C127.002 18.4922 126.868 18.3851 126.699 18.2984C126.53 18.2072 126.336 18.1297 126.118 18.0659C125.903 17.9975 125.682 17.9268 125.454 17.8539C125.231 17.7809 125.01 17.6988 124.791 17.6077C124.576 17.5119 124.385 17.3934 124.216 17.252C124.047 17.1107 123.911 16.9374 123.806 16.7322C123.706 16.5225 123.655 16.2694 123.655 15.973C123.655 15.7086 123.71 15.4555 123.82 15.2139C123.929 14.9676 124.089 14.7533 124.298 14.571C124.508 14.384 124.766 14.2358 125.071 14.1264C125.377 14.017 125.725 13.9623 126.118 13.9623C126.574 13.9623 126.982 14.0352 127.342 14.1811C127.707 14.3225 128.021 14.5185 128.286 14.7693L128.012 15.2139Z" fill="#F2F2F2"/>
</svg>
