<svg width="20" height="20" viewBox="0 0 20 20" fill="none" xmlns="http://www.w3.org/2000/svg">
<path id="Vector" d="M10 0C4.4859 0 0 4.4863 0 10.0004C0 15.5145 4.4859 20.0004 10 20.0004C15.5141 20.0004 20 15.5145 20 10.0004C20.0002 4.4863 15.5141 0 10 0ZM9.19596 14.8342C9.19596 14.5815 9.4017 14.3756 9.65463 14.3756C9.90756 14.3756 10.1133 14.5813 10.1133 14.8342V14.9023C10.1133 15.1553 9.90756 15.361 9.65463 15.361C9.40187 15.361 9.19596 15.1553 9.19596 14.9023V14.8342ZM9.66307 13.8204C9.41031 13.8204 9.2044 13.6146 9.2044 13.3617C9.2044 10.9361 10.1917 10.2762 10.9851 9.74569C11.6414 9.30686 12.1157 8.98976 12.1157 7.67314C12.1157 6.5065 11.1664 5.55749 10 5.55749C8.83371 5.55749 7.88454 6.5065 7.88454 7.67314C7.88454 7.92606 7.6788 8.13181 7.42587 8.13181C7.17311 8.13181 6.96721 7.92607 6.96721 7.67314C6.96721 6.00084 8.32757 4.64015 10 4.64015C11.6723 4.64015 13.033 6.0008 13.033 7.67314C13.033 9.47982 12.1802 10.05 11.4946 10.5082C10.7578 11.0006 10.1216 11.4262 10.1216 13.3616C10.1217 13.6146 9.91615 13.8204 9.66307 13.8204Z" fill="white"/>
</svg>
