<svg width="32" height="32" viewBox="0 0 32 32" fill="none" xmlns="http://www.w3.org/2000/svg">
<rect width="32" height="32" rx="2" fill="#F5C751"/>
<path fill-rule="evenodd" clip-rule="evenodd" d="M7 10C7 9.44772 7.44772 9 8 9H26C26.5523 9 27 9.44772 27 10C27 10.5523 26.5523 11 26 11H8C7.44772 11 7 10.5523 7 10ZM7 16C7 15.4477 7.44772 15 8 15H20C20.5523 15 21 15.4477 21 16C21 16.5523 20.5523 17 20 17H8C7.44772 17 7 16.5523 7 16ZM8 21C7.44772 21 7 21.4477 7 22C7 22.5523 7.44772 23 8 23H23C23.5523 23 24 22.5523 24 22C24 21.4477 23.5523 21 23 21H8Z" fill="white"/>
</svg>
