<svg width="20" height="20" viewBox="0 0 20 20" fill="none" xmlns="http://www.w3.org/2000/svg">
<path id="Vector" d="M17.2656 0H2.73435C1.22413 0 0 1.22413 0 2.73435V17.2656C0 18.7759 1.22413 20 2.73435 20H17.2656C18.7759 20 20 18.7759 20 17.2656V2.73435C20 1.22413 18.7759 0 17.2656 0ZM10 14.9999C9.53981 14.9999 9.16667 14.6267 9.16667 14.1665C9.16667 13.7063 9.53981 13.3332 10 13.3332C10.4602 13.3332 10.8333 13.7063 10.8333 14.1665C10.8333 14.6267 10.4602 14.9999 10 14.9999ZM10.8333 10.9603C10.8333 11.4208 10.4602 11.7936 10 11.7936C9.53981 11.7936 9.16667 11.4208 9.16667 10.9603V4.99986C9.16667 4.53929 9.53981 4.16653 10 4.16653C10.4602 4.16653 10.8333 4.53929 10.8333 4.99986V10.9603Z" fill="white"/>
</svg>
